<svg width="300" height="300" xmlns="http://www.w3.org/2000/svg">
 <!-- Created with Method Draw - http://github.com/duopixel/Method-Draw/ -->

 <g stroke="null">
  <title>background</title>
  <rect stroke="null" fill="none" id="canvas_background" height="302" width="302" y="-1" x="-1"/>
  <g stroke="null" display="none" id="canvasGrid">
   <rect fill="url(#gridpattern)" stroke-width="0" y="0" x="0" height="100%" width="100%" id="svg_1"/>
  </g>
 </g>
 <g stroke="null">
  <title>Layer 1</title>
  <rect transform="rotate(-19.143016815185547 65.04042053222662,126.24139404296876) " id="svg_20" height="30.286174" width="91.919683" y="111.098301" x="19.08058" stroke-width="1.5" fill="#ffc400" stroke="#ffc400"/>
  <path id="svg_34" d="m103.666976,96.450181c0,0 29.999794,-56.666661 83.999774,-57.499991c53.99998,-0.83333 69.99991,40.93334 72.4166,45.13348c2.41669,4.20014 5.833268,15.949802 6.999968,21.783122c1.1667,5.83332 3.416672,20.850018 3.166672,21.050048c-0.24999,0.20003 -19.833228,-35.383385 -41.333251,-50.966768c-21.500023,-15.583383 -38.583351,-18.583257 -63.750038,-6.666616c-25.166687,11.916641 -50.833323,56.099881 -51.083298,55.799911c-0.249975,-0.29997 -9.916444,-28.383183 -10.416427,-28.633186z" stroke-width="1.5" stroke="#ffc400" fill="#ffc400"/>
  <rect transform="rotate(-160.57379150390625 64.82266998291016,165.39518737792972) " id="svg_35" height="30.36642" width="91.919683" y="150.211976" x="18.862826" stroke-width="1.5" fill="#ffc400" stroke="#ffc400"/>
  <path id="svg_17" d="m103.666976,194.350414c0,0 29.999794,54.277217 83.999774,55.075408c53.99998,0.798191 69.99991,-39.207317 72.4166,-43.230352c2.41669,-4.023034 5.833268,-15.277252 6.999968,-20.8646c1.1667,-5.587348 3.416672,-19.970842 3.166672,-20.162438c-0.24999,-0.191595 -19.833228,33.891386 -41.333251,48.817669c-21.500023,14.926284 -38.583351,17.799663 -63.750038,6.385507c-25.166687,-11.414156 -50.833323,-53.734336 -51.083298,-53.447015c-0.249975,0.287321 -9.916444,27.186359 -10.416427,27.42582l0,0.000001z" stroke-width="1.5" fill="#ffc400" stroke="#ffc400"/>
  <rect fill="#ffc400" stroke-width="1.5" x="78.749877" y="47.999826" width="14.500023" height="129.000221" id="svg_18" stroke="#ffc400"/>
  <rect fill="#ffc400" stroke="#ffc400" stroke-width="1.5" x="72.249866" y="74.499869" width="27.500048" height="33.000057" id="svg_22"/>
  <ellipse ry="17" rx="17" id="svg_2" cy="145.527819" cx="27.500093" stroke-width="11" fill="#ffffff" stroke="#ffc400"/>
 </g>
</svg>