<svg width="300" height="300" xmlns="http://www.w3.org/2000/svg">
 <!-- Created with Method Draw - http://github.com/duopixel/Method-Draw/ -->

 <g stroke="null">
  <title>background</title>
  <rect x="-1" y="-1" width="302" height="302" id="canvas_background" fill="none" stroke="null"/>
  <g id="canvasGrid" display="none" stroke="null">
   <rect id="svg_1" width="100%" height="100%" x="0" y="0" stroke-width="0" fill="url(#gridpattern)"/>
  </g>
 </g>
 <g stroke="null">
  <title>Layer 1</title>
  <rect stroke="#ffc400" fill="#ffc400" stroke-width="1.5" x="19.08058" y="110.598317" width="91.919683" height="30.286174" id="svg_20" transform="rotate(-19.143016815185547 65.04042053222662,125.74140167236328) "/>
  <path fill="#ffc400" stroke="#ffc400" stroke-width="1.5" d="m103.666976,95.950196c0,0 29.999794,-56.666661 83.999774,-57.499991c53.99998,-0.83333 69.99991,40.93334 72.4166,45.13348c2.41669,4.20014 5.833268,15.949802 6.999968,21.783122c1.1667,5.83332 3.416672,20.850018 3.166672,21.050048c-0.24999,0.20003 -19.833228,-35.383385 -41.333251,-50.966768c-21.500023,-15.583383 -38.583351,-18.583257 -63.750038,-6.666616c-25.166687,11.916641 -50.833323,56.099881 -51.083298,55.799911c-0.249975,-0.29997 -9.916444,-28.383183 -10.416427,-28.633186z" id="svg_34"/>
  <rect stroke="#ffc400" fill="#ffc400" stroke-width="1.5" x="18.862826" y="150.211976" width="91.919683" height="30.36642" id="svg_35" transform="rotate(-160.57379150390625 64.82266998291016,165.39518737792972) "/>
  <ellipse stroke="#ffc400" fill="#ffffff" stroke-width="11" cx="27.000099" cy="145.527819" id="svg_42" rx="17" ry="17"/>
  <path stroke="#ffc400" fill="#ffc400" stroke-width="1.5" d="m103.666976,194.350414c0,0 29.999794,54.277217 83.999774,55.075408c53.99998,0.798191 69.99991,-39.207317 72.4166,-43.230352c2.41669,-4.023034 5.833268,-15.277252 6.999968,-20.8646c1.1667,-5.587348 3.416672,-19.970842 3.166672,-20.162438c-0.24999,-0.191595 -19.833228,33.891386 -41.333251,48.817669c-21.500023,14.926284 -38.583351,17.799663 -63.750038,6.385507c-25.166687,-11.414156 -50.833323,-53.734336 -51.083298,-53.447015c-0.249975,0.287321 -9.916444,27.186359 -10.416427,27.42582l0,0.000001z" id="svg_17"/>
 </g>
</svg>