<svg width="300" height="300" xmlns="http://www.w3.org/2000/svg">
 <!-- Created with Method Draw - http://github.com/duopixel/Method-Draw/ -->

 <g stroke="null">
  <title>background</title>
  <rect x="-1" y="-1" width="302" height="302" id="canvas_background" fill="none" stroke="null"/>
  <g id="canvasGrid" display="none" stroke="null">
   <rect id="svg_1" width="100%" height="100%" x="0" y="0" stroke-width="0" fill="url(#gridpattern)"/>
  </g>
 </g>
 <g stroke="null">
  <title>Layer 1</title>
  <path transform="rotate(-15.969942092895508 198.3907470703124,158.90231323242188) " id="svg_30" d="m199.42531,36.79883l15.25383,-19.75946l1.41642,140.34536c-2.65413,35.69704 -3.88179,40.17474 -7.79434,62.30564c-3.91256,22.13092 -10.2058,56.60269 -14.21785,65.71715l-12.53969,15.35773l-0.85773,-144.05418l0.34262,-119.69235l18.39674,-0.21989z" stroke-width="0" fill="#a16e10" stroke="#a16e10"/>
  <path transform="rotate(15.978541374206543 102.24526977539061,157.88049316406253) " id="svg_32" d="m100.86765,35.58799l-14.46293,-21.86936l-1.34509,142.61969c2.52048,36.27552 3.68632,40.82578 7.40185,63.31532c3.71554,22.48955 9.69186,57.51995 13.50188,66.78213l11.90822,15.60659l0.81455,-146.38862l0.74478,-118.36414l-18.56326,-1.70161z" stroke-width="0" fill="#a16e10" stroke="#a16e10"/>
  <ellipse ry="20.249846" rx="20.249847" id="svg_33" cy="26.751214" cx="150.500016" stroke-width="12" fill="none" stroke="#a16e10"/>
  <rect id="svg_44" height="25.499557" width="156.496404" y="139.500435" x="102.251094" stroke-width="0" fill="#a16e10" stroke="#a16e10"/>
  <path fill="#a16e10" stroke-width="0" d="m257.08281,135.28287c7.52992,-0.00046 12.91875,5.63723 12.91943,7.98912l0.08905,19.43177c-1.04868,1.05968 -5.06514,6.08134 -13.14279,6.16182c-8.07765,0.08048 -17.36462,-6.36761 -17.11484,-17.33517c0.24978,-10.96756 9.71923,-16.24708 17.24915,-16.24754z" id="svg_2" transform="rotate(-0.052369918674230576 254.95999145513647,152.0746002197303) " stroke="#a16e10"/>
 </g>
</svg>