<svg width="299.99999999999994" height="299.99999999999994" xmlns="http://www.w3.org/2000/svg">
 <!-- Created with Method Draw - http://github.com/duopixel/Method-Draw/ -->

 <g stroke="null">
  <title>background</title>
  <rect x="-1" y="-1" width="302" height="302" id="canvas_background" fill="none" stroke="null"/>
  <g id="canvasGrid" display="none" stroke="null">
   <rect id="svg_1" width="100%" height="100%" x="0" y="0" stroke-width="0" fill="url(#gridpattern)"/>
  </g>
 </g>
 <g stroke="null">
  <title>Layer 1</title>
  <path transform="rotate(-15.969942092895508 189.9166564941406,148.50132751464838) " stroke="#ffc400" id="svg_30" d="m191.679578,21.166454l10.733666,0.203389l1.086687,125.872095c-2.036267,32.015755 -2.978137,36.031681 -5.979884,55.880314c-3.001747,19.848633 -7.829967,50.765476 -10.90805,58.940003l-9.620545,13.773945l-0.658063,-129.198447l0.133087,-125.068511l15.213102,-0.402788z" stroke-width="0" fill="#ffc400"/>
  <path transform="rotate(15.978541374206543 108.91745758056638,147.0013580322266) " stroke="#ffc400" id="svg_32" d="m107.241084,19.666485l-10.206742,0.203389l-1.033341,125.872095c1.936305,32.015755 2.831938,36.031681 5.686327,55.880314c2.854389,19.848633 7.445588,50.765476 10.372565,58.940003l9.148265,13.773945l0.625758,-129.198447l-0.126554,-125.068511l-14.466278,-0.402788z" stroke-width="0" fill="#ffc400"/>
  <ellipse stroke="#ffc400" ry="16.499849" rx="16.24985" id="svg_33" cy="31.00121" cx="149.500017" stroke-width="6" fill="#ffffff"/>
  <path stroke="#ffc400" transform="rotate(-131.1416015625 181.5240173339844,104.45442199707033) " id="svg_38" d="m211.451917,155.685545c-21.237418,-10.85381 -33.624565,-30.013782 -34.198503,-51.206726c-0.012826,-22.025941 13.780933,-41.038058 33.775792,-50.049755l-11.183782,-21.442236c-28.549427,12.83556 -48.236476,40.043378 -48.2493,71.491991c1.025205,31.862632 21.340793,58.883261 47.976373,71.443211l11.87942,-20.236485z" stroke-width="0" fill="#ffc400"/>
 </g>
</svg>