<svg width="300" height="300" xmlns="http://www.w3.org/2000/svg">
 <!-- Created with Method Draw - http://github.com/duopixel/Method-Draw/ -->

 <g stroke="null">
  <title>background</title>
  <rect stroke="null" fill="none" id="canvas_background" height="302" width="302" y="-1" x="-1"/>
  <g stroke="null" display="none" id="canvasGrid">
   <rect fill="url(#gridpattern)" stroke-width="0" y="0" x="0" height="100%" width="100%" id="svg_1"/>
  </g>
 </g>
 <g stroke="null">
  <title>Layer 1</title>
  <path stroke="#a16e10" fill="#a16e10" stroke-width="0" d="m201.460842,11.382017l15.958746,-19.600669l1.481876,139.217517c-2.776784,35.410172 -4.061177,39.851888 -8.154535,61.80494c-4.093369,21.953072 -10.677434,56.14782 -14.874891,65.189034l-13.119179,15.234312l-0.897368,-142.896532l0.358453,-118.730479l19.246897,-0.218123z" id="svg_30" transform="rotate(-37.854278564453125 200.37847900390628,132.5042419433594) "/>
  <path stroke="#a16e10" fill="#a16e10" stroke-width="0" d="m95.787487,48.939923l-15.304499,-20.554626l-1.423358,134.045735c2.667142,34.094722 3.90082,38.371432 7.832549,59.508954c3.93174,21.137532 10.25581,54.061988 14.287528,62.767348l12.601136,14.668359l0.861947,-137.588086l0.788117,-111.248371l-19.643419,-1.599313z" id="svg_32"/>
  <ellipse stroke="#a16e10" fill="none" stroke-width="12" cx="106.666669" cy="26.751214" id="svg_33" rx="20.249847" ry="20.249846"/>
  <rect stroke="#a16e10" transform="rotate(-19.20802879333496 165.8780212402344,119.72220611572268) " fill="#a16e10" stroke-width="0" x="80.457412" y="106.972422" width="170.841228" height="25.499557" id="svg_44"/>
  <path stroke="#a16e10" transform="rotate(-17.841129302978516 237.6268463134765,94.74145507812504) " id="svg_2" d="m239.749623,77.949717c7.52992,-0.00046 12.91875,5.63723 12.91943,7.98912l0.08905,19.43177c-1.04868,1.05968 -5.06514,6.08134 -13.14279,6.16182c-8.07765,0.08048 -17.36462,-6.36761 -17.11484,-17.33517c0.24978,-10.96756 9.71923,-16.24708 17.24915,-16.24754z" stroke-width="0" fill="#a16e10"/>
 </g>
</svg>