<svg width="300" height="300" xmlns="http://www.w3.org/2000/svg">
 <!-- Created with Method Draw - http://github.com/duopixel/Method-Draw/ -->

 <g>
  <title>background</title>
  <rect fill="none" id="canvas_background" height="302" width="302" y="-1" x="-1"/>
 </g>
 <g>
  <title>Layer 1</title>
  <ellipse ry="23" rx="23" id="svg_3" cy="145.6" cx="48.5" fill-opacity="null" stroke-opacity="null" stroke-width="4.5" stroke="#000" fill="none"/>
  <path fill="none" stroke="#000" stroke-width="1.5" stroke-opacity="null" fill-opacity="null" id="svg_15"/>
  <path fill="none" stroke="#000" stroke-width="1.5" stroke-opacity="null" fill-opacity="null" id="svg_20"/>
  <path stroke="#000" transform="rotate(-90 76.26268005371098,145.6544342041016) " id="svg_1" fill="#000000" stroke-width="1.5" stroke-opacity="null" d="m64.26214,138.82082a0.24001,0.27334 0 0 0 24.00111,0"/>
  <rect stroke="#000" transform="rotate(-20 85.73576354980474,138.21424865722653) " id="svg_2" height="7.53743" width="28.66706" y="134.44554" x="71.40223" stroke-opacity="null" stroke-width="1.5" fill="#000000"/>
  <rect stroke="#000" transform="rotate(20 85.35354614257807,153.79344177246094) " id="svg_4" height="7.82301" width="28.66706" y="149.88193" x="71.02003" stroke-opacity="null" stroke-width="1.5" fill="#000000"/>
  <line stroke="#000" stroke-linecap="null" stroke-linejoin="null" id="svg_5" y2="222.26518" x2="89.5323" y1="117.59899" x1="89.19896" fill-opacity="null" stroke-opacity="null" stroke-width="2.5" fill="none"/>
  <path id="svg_7" fill-opacity="null" stroke-opacity="null" stroke-width="1.5" stroke="#000" fill="#000000"/>
  <path id="svg_12" fill-opacity="null" stroke-opacity="null" stroke-width="1.5" stroke="#000" fill="none"/>
  <path id="svg_16" fill-opacity="null" stroke-opacity="null" stroke-width="1.5" stroke="#000" fill="none"/>
  <path id="svg_18" stroke-opacity="null" stroke-width="1.5" stroke="#000" fill="#000000"/>
  <path stroke="#000" id="svg_23" d="m94.66855,131.78579c0,0 7.96252,-78.58915 86.36281,-78.58915c78.40028,0 83.30031,74.52419 83.30031,75.20168c0,0.67749 -11.63754,-71.81421 -83.30031,-69.78173c-71.66276,2.03247 -79.62529,77.91164 -79.62529,77.91164c0,0 -6.73752,-4.74244 -6.73752,-4.74244z" fill-opacity="null" stroke-opacity="null" fill="#000000"/>
  <path stroke="#000" transform="rotate(180 179.0001220703125,198.528564453125) " id="svg_27" d="m264.0009,236.33809c0,0 -7.97841,-80.4753 -86.5351,-80.4753c-78.55668,0 -83.46648,76.31278 -83.46648,77.00653c0,0.69375 11.66075,-73.53776 83.46648,-71.4565c71.80572,2.08125 79.78414,79.78153 79.78414,79.78153c0,0 6.75096,-4.85626 6.75096,-4.85626z" fill-opacity="null" stroke-opacity="null" fill="#000000"/>
 </g>
</svg>