<?xml version="1.0" standalone="no"?>
<!DOCTYPE svg PUBLIC "-//W3C//DTD SVG 20010904//EN"
 "http://www.w3.org/TR/2001/REC-SVG-20010904/DTD/svg10.dtd">
<svg version="1.0" xmlns="http://www.w3.org/2000/svg"
 width="700.000000pt" height="700.000000pt" viewBox="0 0 700.000000 700.000000"
 preserveAspectRatio="xMidYMid meet">
<metadata>
Created by potrace 1.11, written by Peter Selinger 2001-2013
</metadata>
<g transform="translate(0.000000,700.000000) scale(0.100000,-0.100000)"
fill="#000000" stroke="none">
<path d="M2440 6987 c-3 -3 -25 -7 -50 -10 -211 -26 -413 -199 -480 -410 -33
-106 -29 29 -45 -1387 -21 -1931 -21 -1954 -10 -2085 4 -55 9 -113 10 -130 2
-31 12 -142 21 -230 2 -27 9 -84 14 -125 5 -41 12 -97 15 -125 8 -70 14 -107
31 -210 8 -49 17 -103 20 -120 3 -16 21 -115 40 -220 20 -104 38 -201 41 -215
41 -223 104 -540 148 -745 18 -86 88 -381 101 -425 51 -172 59 -187 182 -329
64 -75 125 -145 134 -155 10 -11 18 -23 18 -27 0 -4 6 -9 13 -12 9 -3 12 53
14 262 3 555 15 2510 17 2838 1 188 4 344 7 347 2 2 72 27 154 56 83 28 159
55 170 60 11 5 47 17 80 28 33 11 152 52 265 92 113 39 223 78 245 85 22 7
119 41 215 75 293 103 268 97 293 69 12 -13 51 -62 87 -109 35 -47 103 -134
150 -193 47 -60 116 -148 153 -195 37 -48 73 -94 80 -102 7 -8 28 -35 47 -60
19 -25 37 -47 40 -50 3 -3 55 -68 115 -145 60 -77 151 -194 204 -260 118 -150
159 -202 267 -340 47 -60 105 -135 130 -165 49 -62 129 -164 504 -640 333
-424 481 -610 484 -610 2 0 3 6 3 13 0 6 4 80 8 162 16 288 14 308 -28 418
-21 54 -60 146 -88 203 -27 58 -49 107 -49 109 0 14 -275 571 -490 990 -189
371 -227 439 -413 750 -15 25 -196 309 -255 400 -25 39 -59 87 -75 108 -16 21
-27 40 -25 43 3 2 94 35 204 73 109 38 218 76 242 85 33 12 49 13 70 5 29 -12
158 -16 208 -7 46 9 134 55 177 93 21 18 53 59 71 89 l34 56 -44 132 c-24 73
-56 171 -71 218 -31 101 -64 138 -146 164 -156 49 -325 -8 -435 -148 -18 -24
-175 -86 -407 -161 -22 -8 -98 -34 -169 -59 -72 -25 -131 -46 -132 -46 -3 0
-168 206 -776 974 -238 299 -216 272 -248 312 -14 17 -38 48 -55 69 -16 21
-43 55 -60 75 -16 20 -40 50 -52 66 -34 44 -359 454 -395 496 -17 21 -36 44
-42 51 -46 56 -201 145 -286 165 -52 12 -193 26 -200 19z m135 -292 c147 -38
255 -191 242 -344 -18 -222 -239 -360 -450 -281 -69 26 -143 94 -177 165 -35
70 -36 208 -2 276 74 150 229 224 387 184z m145 -965 c5 -4 383 -493 422 -545
4 -5 20 -26 35 -45 16 -19 42 -53 59 -75 17 -22 116 -150 220 -285 226 -293
246 -320 241 -320 -4 0 -147 -50 -894 -311 -62 -21 -115 -39 -117 -39 -2 0 -2
210 -1 468 2 257 4 631 5 832 1 273 4 360 12 345 6 -11 14 -22 18 -25z"/>
</g>
</svg>
