<svg xmlns="http://www.w3.org/2000/svg" xmlns:xlink="http://www.w3.org/1999/xlink" version="1.1" viewBox="0 0 100 100"><g><rect x="72" y="4.9" transform="matrix(0.3058 -0.9521 0.9521 0.3058 43.169 78.764)" width="7.1" height="9.8"/><polygon points="69,14.2 56.4,53.5 58.2,63.4 65.7,56.5 78.3,17.2  "/></g><path d="M58.2,63.4c0,0-1.7,0.1-4.6,0.5c-1.5,0.2-3.2,0.4-5.3,0.7c-2,0.3-4.3,0.7-6.7,1.4c-1.1,0.3-2.4,0.8-3.2,1.4  c-0.2,0.1-0.3,0.3-0.3,0.4c0,0,0,0.1,0,0c0,0.3,0,0,0,0.1c0.1,0.2,0.5,0.6,1.1,0.8c2.3,1.2,5.3,1.9,8.3,2.8c3.1,0.8,6.2,1.7,9.5,3  c1.6,0.7,3.2,1.5,4.8,2.7c0.8,0.6,1.5,1.4,2.1,2.5c0.6,1.1,0.7,2.3,0.7,3.4c-0.1,2.3-1.4,4.3-2.9,5.6c-1.5,1.3-3.1,2.2-4.8,2.9  c-3.3,1.4-6.7,2-9.9,2.5c-1.6,0.2-3.2,0.4-4.8,0.5c-1.5,0.1-3,0.1-4.5,0.2c-2.9,0.1-5.6,0.2-8.2,0.3c-2.5,0-4.9-0.1-7-0.2  c-2.1-0.1-3.9-0.2-5.4-0.4c-1.5-0.2-2.6-0.3-3.4-0.4c-0.8-0.1-1.2-0.2-1.2-0.2s0.4,0,1.2-0.1c0.8-0.1,2-0.2,3.4-0.3  c1.5-0.1,3.3-0.3,5.3-0.5c2-0.2,4.3-0.4,6.8-0.7c2.5-0.3,5.2-0.6,8.1-0.9c1.4-0.1,2.9-0.3,4.4-0.4c1.4-0.1,3-0.3,4.5-0.5  c3-0.5,6.2-1.1,9-2.3c2.8-1.1,5.4-3.1,5.5-5.3c0.1-1.2-0.3-2-1.4-2.9c-1-0.9-2.4-1.7-3.9-2.3c-2.9-1.3-6-2.2-9-3.3 c-3-1-6-1.8-8.8-3.5c-0.7-0.5-1.5-1-1.9-2.1c-0.1-0.2-0.2-0.9-0.2-0.9c0-0.4,0.1-0.7,0.2-1c0.3-0.6,0.7-0.9,1-1.2 c1.5-0.9,2.8-1.2,4.1-1.5c2.6-0.5,4.9-0.6,7-0.8c2.1-0.1,3.9-0.1,5.4-0.1C56.6,63.3,58.2,63.4,58.2,63.4z"/></svg>